<svg version="1" xmlns="http://www.w3.org/2000/svg" width="933.333" height="933.333" viewBox="0 0 700.000000 700.000000"><path d="M336.9 35.1c-.5 1.5-.3 130.2.2 130.4.3.2 4.1.7 8.5 1 4.3.3 9 .8 10.4 1 1.4.2 4.8.7 7.5 1 4.2.4 14.4 1.8 22 3 18 2.9 40.6 8 58.5 13.5 47 14.2 81.9 34.8 102.7 60.5 21.2 26.1 30.1 68.4 21.4 101.5-9.8 37.1-39.8 70.3-88 97.2-25.3 14.2-60.6 28.9-88.6 36.9-19.2 5.5-24.2 6.9-26.5 7.4-1.4.3-5.9 1.4-10 2.5l-7.5 1.9 7.5-.4c24.6-1.5 67.1-9.1 94.5-17 5-1.5 10.4-3 12-3.4 1.7-.5 7.3-2.3 12.5-4.1 69.6-23.6 119.7-59.6 147.6-106 9.7-16.1 18.1-36.5 21-51 .3-1.4 1-4.2 1.5-6.4.6-2.1 1.3-5.7 1.5-7.9.3-2.3.7-4.3.9-4.6.8-1.3 1.9-19.6 1.9-31.1 0-13-.9-24.6-2.4-31.5-.5-2.2-1.1-5.1-1.4-6.5-5.8-31.2-24.1-63.5-51.1-90.5-9.7-9.8-26.6-24-34.9-29.4-2.3-1.4-4.3-2.8-4.6-3.1-.8-.9-17-11-17.6-11-.3 0-1.8-.9-3.3-1.9-5.2-3.7-32.8-17-47.6-22.9-13.1-5.3-40.3-14.5-46-15.6-1.1-.2-6.7-1.6-12.5-3-17.3-4.2-36.6-7.4-55-9.2-6.7-.6-35-1.7-35.1-1.3z"/><path d="M351.9 206.4c-.2.2-3.8.6-7.9 1-14.4 1.3-25.7 2.7-34 4.2-1.4.2-4.1.7-6 1-8 1.2-10 1.6-21.5 4-76.7 16.2-138 46-176.7 86-3.6 3.8-8.7 9.4-11.3 12.4C89 321.5 78 337.4 78 338.8c0 .6-.4 1.2-.8 1.4-1.3.5-8.7 15.6-12.6 25.7-4 10-9.1 28.9-10.1 36.8-.4 2.6-.8 5.5-1 6.3-1.7 6.6-2.5 37.3-1.2 49 1 8.9 1.4 11.3 4.2 25 2.2 10.3 11.3 32 18.8 44.8 14 23.9 35.7 46.8 63.7 67.3 23.3 17.1 63.3 37.4 93.8 47.5 4.3 1.4 8.4 2.8 9.2 3.1.8.3 2 .7 2.5.9.6.1 6.4 1.8 13.1 3.7 29.6 8.5 65.7 14 92.9 14.1l13 .1v-64.8c0-35.7-.2-65-.6-65.2-.3-.2-3.9-.7-8-1-4.1-.3-9-.7-10.9-1-1.9-.3-5.5-.7-8-1-2.5-.3-7.2-1-10.5-1.5s-7.9-1.2-10.2-1.5c-2.3-.3-8.9-1.4-14.5-2.6-5.7-1.1-11.4-2.3-12.8-2.5-5.7-1.1-19.3-4.7-31.8-8.5-53.9-16.1-91.9-40.8-110.9-71.9-12.5-20.5-18.8-50.2-16-75.5 5.1-47.1 42.3-88.7 108.2-120.9 29-14.2 66.1-27.5 98-35.1 8.8-2.1 16.4-4.2 17-4.7.5-.4.7-.8.4-.8-.3 0-.8.2-1 .4z"/><path d="M337.8 271.5c-.2.2-3.4.6-7.3 1-16.7 1.6-35.1 7.8-49.2 16.7-8.6 5.4-9.3 6-17 13.6-21.4 21.2-26 49-12.5 74.5 4.3 8.2 15 20 23.6 26.2 12.8 9.1 32.3 17.2 47.3 19.5 3.8.6 7.9 1.3 9.3 1.6 3 .5 26.7.6 29.5 0 1.1-.2 4.2-.7 6.8-1 24.1-3.5 47.2-14.7 62.5-30.2 5.9-6.1 13-16.7 15.6-23.4 13-33.1-5.2-68.5-44.7-87-8.7-4.1-23.3-8.7-30.1-9.5-2.3-.3-5.2-.8-6.6-1.1-2.7-.6-26.7-1.4-27.2-.9z"/></svg>